<mxfile host="app.diagrams.net" modified="2023-10-03T21:31:31.677Z" agent="Mozilla/5.0 (Windows NT 10.0; Win64; x64) AppleWebKit/537.36 (KHTML, like Gecko) Chrome/117.0.0.0 Safari/537.36" etag="Nl0eTlAy1gDsBrf20R8z" version="22.0.2" type="device">
  <diagram name="Страница — 1" id="MZHPP0oaIWRYFDdQWzVH">
    <mxGraphModel dx="1851" dy="591" grid="1" gridSize="10" guides="1" tooltips="1" connect="1" arrows="1" fold="1" page="1" pageScale="1" pageWidth="827" pageHeight="1169" math="0" shadow="0">
      <root>
        <mxCell id="0" />
        <mxCell id="1" parent="0" />
        <mxCell id="SHlK4U1hGGtmzxs1d3S5-1" value="&lt;font style=&quot;font-size: 18px;&quot;&gt;&lt;b&gt;Интернет-магазин кроссовок&lt;/b&gt;&lt;/font&gt;" style="rounded=0;whiteSpace=wrap;html=1;" vertex="1" parent="1">
          <mxGeometry x="-40" y="170" width="560" height="310" as="geometry" />
        </mxCell>
        <mxCell id="SHlK4U1hGGtmzxs1d3S5-2" value="" style="endArrow=classic;html=1;rounded=0;" edge="1" parent="1">
          <mxGeometry width="50" height="50" relative="1" as="geometry">
            <mxPoint x="-130" y="240" as="sourcePoint" />
            <mxPoint x="-40" y="240" as="targetPoint" />
          </mxGeometry>
        </mxCell>
        <mxCell id="SHlK4U1hGGtmzxs1d3S5-3" value="Пользователи" style="text;html=1;align=center;verticalAlign=middle;resizable=0;points=[];autosize=1;strokeColor=none;fillColor=none;" vertex="1" parent="1">
          <mxGeometry x="-140" y="210" width="100" height="30" as="geometry" />
        </mxCell>
        <mxCell id="SHlK4U1hGGtmzxs1d3S5-6" value="" style="endArrow=classic;html=1;rounded=0;" edge="1" parent="1">
          <mxGeometry width="50" height="50" relative="1" as="geometry">
            <mxPoint x="-130" y="329.29" as="sourcePoint" />
            <mxPoint x="-40" y="329.29" as="targetPoint" />
          </mxGeometry>
        </mxCell>
        <mxCell id="SHlK4U1hGGtmzxs1d3S5-7" value="Запросы пользователей" style="text;html=1;align=center;verticalAlign=middle;resizable=0;points=[];autosize=1;strokeColor=none;fillColor=none;" vertex="1" parent="1">
          <mxGeometry x="-200" y="299.29" width="160" height="30" as="geometry" />
        </mxCell>
        <mxCell id="SHlK4U1hGGtmzxs1d3S5-8" value="" style="endArrow=classic;html=1;rounded=0;" edge="1" parent="1">
          <mxGeometry width="50" height="50" relative="1" as="geometry">
            <mxPoint x="-130" y="440" as="sourcePoint" />
            <mxPoint x="-40" y="440" as="targetPoint" />
          </mxGeometry>
        </mxCell>
        <mxCell id="SHlK4U1hGGtmzxs1d3S5-9" value="Сырье для изготовления" style="text;html=1;align=center;verticalAlign=middle;resizable=0;points=[];autosize=1;strokeColor=none;fillColor=none;" vertex="1" parent="1">
          <mxGeometry x="-200" y="410" width="160" height="30" as="geometry" />
        </mxCell>
        <mxCell id="SHlK4U1hGGtmzxs1d3S5-10" value="" style="endArrow=classic;html=1;rounded=0;labelBorderColor=none;" edge="1" parent="1">
          <mxGeometry width="50" height="50" relative="1" as="geometry">
            <mxPoint x="-20" y="75.86" as="sourcePoint" />
            <mxPoint x="-20" y="168.6186206896556" as="targetPoint" />
          </mxGeometry>
        </mxCell>
        <mxCell id="SHlK4U1hGGtmzxs1d3S5-11" value="Безопасность" style="text;html=1;align=center;verticalAlign=middle;resizable=0;points=[];autosize=1;strokeColor=none;fillColor=none;" vertex="1" parent="1">
          <mxGeometry x="-20" y="108.61999999999999" width="100" height="30" as="geometry" />
        </mxCell>
        <mxCell id="SHlK4U1hGGtmzxs1d3S5-14" value="" style="endArrow=classic;html=1;rounded=0;labelBorderColor=none;" edge="1" parent="1">
          <mxGeometry width="50" height="50" relative="1" as="geometry">
            <mxPoint x="80" y="77.24" as="sourcePoint" />
            <mxPoint x="80" y="169.99862068965558" as="targetPoint" />
          </mxGeometry>
        </mxCell>
        <mxCell id="SHlK4U1hGGtmzxs1d3S5-15" value="Стандарт &lt;br&gt;контроля &lt;br&gt;изготовления" style="text;html=1;align=center;verticalAlign=middle;resizable=0;points=[];autosize=1;strokeColor=none;fillColor=none;" vertex="1" parent="1">
          <mxGeometry x="80" y="93.61999999999999" width="100" height="60" as="geometry" />
        </mxCell>
        <mxCell id="SHlK4U1hGGtmzxs1d3S5-17" value="" style="endArrow=classic;html=1;rounded=0;labelBorderColor=none;" edge="1" parent="1">
          <mxGeometry width="50" height="50" relative="1" as="geometry">
            <mxPoint x="180" y="77.24" as="sourcePoint" />
            <mxPoint x="180" y="169.99862068965558" as="targetPoint" />
          </mxGeometry>
        </mxCell>
        <mxCell id="SHlK4U1hGGtmzxs1d3S5-18" value="Маркетинг и реклама" style="text;html=1;align=center;verticalAlign=middle;resizable=0;points=[];autosize=1;strokeColor=none;fillColor=none;" vertex="1" parent="1">
          <mxGeometry x="180" y="108.61999999999999" width="140" height="30" as="geometry" />
        </mxCell>
        <mxCell id="SHlK4U1hGGtmzxs1d3S5-20" value="" style="endArrow=classic;html=1;rounded=0;labelBorderColor=none;" edge="1" parent="1">
          <mxGeometry width="50" height="50" relative="1" as="geometry">
            <mxPoint x="320" y="77.24" as="sourcePoint" />
            <mxPoint x="320" y="169.99862068965558" as="targetPoint" />
          </mxGeometry>
        </mxCell>
        <mxCell id="SHlK4U1hGGtmzxs1d3S5-21" value="Панель администратора" style="text;html=1;align=center;verticalAlign=middle;resizable=0;points=[];autosize=1;strokeColor=none;fillColor=none;" vertex="1" parent="1">
          <mxGeometry x="320" y="108.61999999999999" width="160" height="30" as="geometry" />
        </mxCell>
        <mxCell id="SHlK4U1hGGtmzxs1d3S5-23" value="" style="endArrow=classic;html=1;rounded=0;labelBorderColor=none;" edge="1" parent="1">
          <mxGeometry width="50" height="50" relative="1" as="geometry">
            <mxPoint x="523.12" y="210" as="sourcePoint" />
            <mxPoint x="644.37" y="210" as="targetPoint" />
          </mxGeometry>
        </mxCell>
        <mxCell id="SHlK4U1hGGtmzxs1d3S5-24" value="Заказы и платежи" style="text;html=1;align=center;verticalAlign=middle;resizable=0;points=[];autosize=1;strokeColor=none;fillColor=none;" vertex="1" parent="1">
          <mxGeometry x="523.12" y="180" width="120" height="30" as="geometry" />
        </mxCell>
        <mxCell id="SHlK4U1hGGtmzxs1d3S5-25" value="" style="endArrow=classic;html=1;rounded=0;labelBorderColor=none;" edge="1" parent="1">
          <mxGeometry width="50" height="50" relative="1" as="geometry">
            <mxPoint x="521.87" y="278.75" as="sourcePoint" />
            <mxPoint x="643.12" y="278.75" as="targetPoint" />
          </mxGeometry>
        </mxCell>
        <mxCell id="SHlK4U1hGGtmzxs1d3S5-26" value="История заказов" style="text;html=1;align=center;verticalAlign=middle;resizable=0;points=[];autosize=1;strokeColor=none;fillColor=none;" vertex="1" parent="1">
          <mxGeometry x="521.87" y="248.75" width="120" height="30" as="geometry" />
        </mxCell>
        <mxCell id="SHlK4U1hGGtmzxs1d3S5-27" value="" style="endArrow=classic;html=1;rounded=0;labelBorderColor=none;" edge="1" parent="1">
          <mxGeometry width="50" height="50" relative="1" as="geometry">
            <mxPoint x="520.62" y="360" as="sourcePoint" />
            <mxPoint x="641.87" y="360" as="targetPoint" />
          </mxGeometry>
        </mxCell>
        <mxCell id="SHlK4U1hGGtmzxs1d3S5-28" value="Обратная связь" style="text;html=1;align=center;verticalAlign=middle;resizable=0;points=[];autosize=1;strokeColor=none;fillColor=none;" vertex="1" parent="1">
          <mxGeometry x="525.62" y="330" width="110" height="30" as="geometry" />
        </mxCell>
        <mxCell id="SHlK4U1hGGtmzxs1d3S5-29" value="" style="endArrow=classic;html=1;rounded=0;labelBorderColor=none;" edge="1" parent="1">
          <mxGeometry width="50" height="50" relative="1" as="geometry">
            <mxPoint x="520" y="450" as="sourcePoint" />
            <mxPoint x="641.25" y="450" as="targetPoint" />
          </mxGeometry>
        </mxCell>
        <mxCell id="SHlK4U1hGGtmzxs1d3S5-30" value="Аналитика и отчетность" style="text;html=1;align=center;verticalAlign=middle;resizable=0;points=[];autosize=1;strokeColor=none;fillColor=none;" vertex="1" parent="1">
          <mxGeometry x="523.12" y="420" width="160" height="30" as="geometry" />
        </mxCell>
        <mxCell id="SHlK4U1hGGtmzxs1d3S5-32" value="" style="endArrow=classic;html=1;rounded=0;labelBorderColor=none;" edge="1" parent="1">
          <mxGeometry width="50" height="50" relative="1" as="geometry">
            <mxPoint x="-20" y="590" as="sourcePoint" />
            <mxPoint x="-20" y="480" as="targetPoint" />
          </mxGeometry>
        </mxCell>
        <mxCell id="SHlK4U1hGGtmzxs1d3S5-33" value="База данных" style="text;html=1;align=center;verticalAlign=middle;resizable=0;points=[];autosize=1;strokeColor=none;fillColor=none;" vertex="1" parent="1">
          <mxGeometry x="-15" y="520" width="90" height="30" as="geometry" />
        </mxCell>
        <mxCell id="SHlK4U1hGGtmzxs1d3S5-34" value="" style="endArrow=classic;html=1;rounded=0;labelBorderColor=none;" edge="1" parent="1">
          <mxGeometry width="50" height="50" relative="1" as="geometry">
            <mxPoint x="90" y="590" as="sourcePoint" />
            <mxPoint x="90" y="480" as="targetPoint" />
          </mxGeometry>
        </mxCell>
        <mxCell id="SHlK4U1hGGtmzxs1d3S5-35" value="Корзина товаров" style="text;html=1;align=center;verticalAlign=middle;resizable=0;points=[];autosize=1;strokeColor=none;fillColor=none;" vertex="1" parent="1">
          <mxGeometry x="90" y="520" width="120" height="30" as="geometry" />
        </mxCell>
        <mxCell id="SHlK4U1hGGtmzxs1d3S5-37" value="" style="endArrow=classic;html=1;rounded=0;labelBorderColor=none;" edge="1" parent="1">
          <mxGeometry width="50" height="50" relative="1" as="geometry">
            <mxPoint x="220" y="590" as="sourcePoint" />
            <mxPoint x="220" y="480" as="targetPoint" />
          </mxGeometry>
        </mxCell>
        <mxCell id="SHlK4U1hGGtmzxs1d3S5-38" value="Платежные системы" style="text;html=1;align=center;verticalAlign=middle;resizable=0;points=[];autosize=1;strokeColor=none;fillColor=none;" vertex="1" parent="1">
          <mxGeometry x="220" y="520" width="140" height="30" as="geometry" />
        </mxCell>
        <mxCell id="SHlK4U1hGGtmzxs1d3S5-39" value="" style="endArrow=classic;html=1;rounded=0;labelBorderColor=none;" edge="1" parent="1">
          <mxGeometry width="50" height="50" relative="1" as="geometry">
            <mxPoint x="360" y="590" as="sourcePoint" />
            <mxPoint x="360" y="480" as="targetPoint" />
          </mxGeometry>
        </mxCell>
        <mxCell id="SHlK4U1hGGtmzxs1d3S5-40" value="Персонал производства" style="text;html=1;align=center;verticalAlign=middle;resizable=0;points=[];autosize=1;strokeColor=none;fillColor=none;" vertex="1" parent="1">
          <mxGeometry x="360" y="520" width="160" height="30" as="geometry" />
        </mxCell>
      </root>
    </mxGraphModel>
  </diagram>
</mxfile>
